<svg width="1796" height="388" viewBox="0 0 1796 388" fill="none" xmlns="http://www.w3.org/2000/svg">
<g clip-path="url(#clip0_12841_13890)">
<rect width="1796" height="397.084" transform="translate(0.000244141 -5)" fill="url(#paint0_linear_12841_13890)"/>
<path fill-rule="evenodd" clip-rule="evenodd" d="M554.31 -622.421C671.145 -778.361 849.832 -798.91 1059.1 -679.284C1209.71 -593.134 1171.6 -491.706 1148.08 -460.325C1103.15 -400.333 958.121 -392.697 958.121 -392.697C958.121 -392.697 935.38 -352.403 1018.67 -304.726C1101.95 -257.05 1219.15 -258.437 1309.38 -378.904C1413.07 -517.188 1295.63 -675.471 1131.94 -769.158C994.864 -847.334 620.223 -1039.33 383.686 -723.913C266.947 -568.246 395.255 -384.235 509.31 -220.665C600.539 -89.8304 682.65 27.9269 622.947 107.642C476.959 302.427 188.079 211.045 103.967 162.892C19.8559 114.74 25.0248 42.0171 46.7182 13.0442C164.918 -144.702 377.123 -85.4315 377.123 -85.4315C385.855 -96.9889 415.058 -155.508 345.531 -195.251C166.623 -297.544 -6.02476 -204.205 -104.623 -72.6626C-188.532 39.1765 -151.079 160.845 -14.6389 238.824C246.179 388 623.478 446.019 808.987 198.665C901.261 75.5655 785.265 -98.3259 676.723 -261.041C581.282 -404.119 491.604 -538.556 554.357 -622.221L554.31 -622.421ZM2567.36 1426.16C2568.66 1420.51 2562.06 1418.27 2550.08 1419.48C2546.63 1419.81 2542.78 1420.24 2538.55 1420.71C2487.09 1426.43 2379.29 1438.41 2232.87 1354.62C1944.16 1189.54 2208.13 745.28 2208.13 745.28C2208.13 745.28 2536.01 728.312 2613.93 690.279C2691.86 652.246 2592.48 576.453 2592.48 576.453C2592.48 576.453 2315.4 651.407 2170.41 636.769C2197.37 610.256 2247.72 574.975 2302.86 536.333C2381.43 481.277 2469.73 419.396 2514.01 366.323C2589.46 275.877 2439.08 221.836 2411.07 218.648C2396.64 237.871 2300.83 315.105 2183.03 410.075L2183.02 410.079C2050.97 516.533 1891.27 645.271 1787.56 739.569C1735.82 760.205 1669.43 779.829 1637.15 761.385C1618.57 750.675 1634.52 716.491 1667.09 672.872C1689.79 642.56 1729.17 608.646 1768.3 574.955C1806.92 541.698 1845.28 508.658 1867.11 479.514C1897.62 438.863 1878.25 424.238 1860 413.887C1858.01 412.736 1851.39 409.138 1844.78 405.54L1844.77 405.536C1838.16 401.94 1831.55 398.344 1829.55 397.194C1805.41 383.364 1804.74 369.709 1804.08 356.426C1803.46 343.841 1802.85 331.589 1782.32 319.838C1652.71 245.626 1394.46 274.225 1246.32 456.703C1183.6 456.837 1098.27 453.437 1067.08 435.628C1034.34 416.746 1046.23 385.58 1063.37 362.627C1093.62 322.337 1348.75 126.362 1348.75 126.362C1348.75 126.362 1459.51 159.635 1506.07 176.452C1541.3 189.163 1551.65 192.194 1574.04 186.091C1596.43 179.988 1640.52 166.346 1678.29 152.694C1715.97 139.161 1711.54 109.471 1675.95 89.1234C1629.22 62.3499 1485.23 16.3168 1485.23 16.3168C1485.23 16.3168 1715.73 -175.024 1719.28 -179.719C1722.82 -184.415 1717.53 -190.748 1707.77 -196.381C1685.06 -209.471 1636.52 -222.08 1604.56 -228.928C1555.56 -239.376 1491.12 -215.522 1469.64 -199.386C1448.17 -183.251 1286.24 -54.1718 1286.24 -54.1718C1286.24 -54.1718 991.529 -120.054 950.368 -128.059C947.62 -128.606 945.109 -127.635 943.835 -125.95C942.471 -124.144 900.493 -16.2994 956.949 15.9071C997.629 39.19 1147.47 64.9217 1147.47 64.9217C1147.47 64.9217 926.745 241.501 874.036 312.047C839.972 357.393 824.164 424.327 925.427 482.196C1019.81 536.099 1133.65 541.245 1201.89 538.247C1184.96 608.505 1232.84 658.067 1273.52 681.35C1364.88 733.507 1482.8 710.762 1497.98 707.412C1491.34 738.674 1483.66 801.651 1547.41 838.062C1583.32 858.768 1647.44 844.753 1700.61 826.669C1693.74 834.979 1688.37 842.082 1684.92 848.216C1629.71 942.207 1817.24 976.36 1834.5 968.681C1847.3 954.081 1862.54 935.326 1879.56 914.383L1879.57 914.374C1932.96 848.693 2003.83 761.506 2071.53 713.529C1903.7 1008.59 1910.65 1275.99 2172.98 1426.04C2319.6 1509.89 2422.42 1516.29 2476.58 1503.96C2539.09 1489.71 2564.19 1442.65 2567.86 1426.28L2567.36 1426.16ZM1379.53 612.154C1253.64 540.084 1633.04 349.567 1740.5 411.006C1712.89 447.804 1523.26 694.338 1379.53 612.154ZM2605.73 1332.5C2573.53 1344.52 2436.22 1359.2 2322.57 1294.19L2322.8 1294.15C2143.43 1191.42 2199.77 1030.32 2295.98 948.738C2415.66 847.329 2626.83 827.187 2741.12 881.677C2834.22 926.028 2857.74 999.736 2850.23 1028.76C2842.85 1057.35 2801.87 1109.77 2748.36 1134.05C2581.12 1209.77 2406.98 1078.42 2406.98 1078.42C2406.98 1078.42 2312.51 1160.84 2411.71 1217.52C2490.94 1262.71 2552.93 1252.52 2608.58 1243.36C2612.17 1242.77 2615.74 1242.19 2619.28 1241.62C2634.13 1249.15 2647.42 1316.79 2605.73 1332.5ZM2717.72 1022.7C2742.91 998.514 2763.8 973.743 2745.69 963.991L2745.6 964.111C2670.9 924.152 2498.03 998.699 2449.76 1048.47C2556.23 1114.87 2683.69 1055.45 2717.72 1022.7Z" fill="url(#paint1_linear_12841_13890)"/>
</g>
<defs>
<linearGradient id="paint0_linear_12841_13890" x1="1170.14" y1="11.2249" x2="1083.47" y2="428.265" gradientUnits="userSpaceOnUse">
<stop stop-color="#00CA51"/>
<stop offset="1" stop-color="#1A2C38"/>
</linearGradient>
<linearGradient id="paint1_linear_12841_13890" x1="1453.22" y1="-10.4756" x2="1230.83" y2="503.419" gradientUnits="userSpaceOnUse">
<stop stop-color="#00CA51"/>
<stop offset="1" stop-color="#1B2D39"/>
</linearGradient>
<clipPath id="clip0_12841_13890">
<rect width="1796" height="397.084" fill="white" transform="translate(0.000244141 -5)"/>
</clipPath>
</defs>
</svg>

