<svg xmlns="http://www.w3.org/2000/svg" fill="#ffffff" viewBox="0 0 511.106 511.106"><g><path d="m187.359 270.553c-1.998 35.898-11.118 71.528-26.686 103.885-15.088 31.361-36.365 59.899-62.038 83.43 40.795 31.773 89.892 50.252 141.917 53.238v-240.553z"/><path d="m133.64 361.431c13.627-28.323 21.695-59.463 23.658-90.878h-157.298c3.601 62.739 29.735 121.221 74.534 166.02.467.467.945.917 1.414 1.38 23.96-21.368 43.777-47.6 57.692-76.522z"/><path d="m350.432 374.438c-15.567-32.356-24.688-67.987-26.686-103.885h-53.194v240.553c52.025-2.986 101.122-21.465 141.917-53.238-25.672-23.532-46.949-52.07-62.037-83.43z"/><path d="m511.106 270.553h-157.298c1.962 31.415 10.031 62.556 23.658 90.878 13.914 28.921 33.732 55.153 57.692 76.521.47-.463.948-.913 1.414-1.38 44.799-44.798 70.933-103.28 74.534-166.019z"/><path d="m323.747 240.553c1.998-35.898 11.118-71.528 26.686-103.885 15.088-31.361 36.365-59.899 62.038-83.43-40.796-31.773-89.893-50.252-141.918-53.238v240.553z"/><path d="m160.674 136.668c15.567 32.356 24.688 67.987 26.686 103.885h53.194v-240.553c-52.026 2.986-101.123 21.465-141.918 53.238 25.673 23.532 46.95 52.07 62.038 83.43z"/><path d="m377.466 149.675c-13.627 28.323-21.695 59.463-23.658 90.878h157.298c-3.601-62.739-29.735-121.221-74.534-166.02-.467-.467-.945-.917-1.414-1.38-23.96 21.369-43.777 47.6-57.692 76.522z"/><path d="m133.64 149.675c-13.914-28.921-33.732-55.153-57.692-76.521-.47.463-.948.913-1.414 1.38-44.799 44.798-70.933 103.28-74.534 166.019h157.298c-1.963-31.415-10.031-62.556-23.658-90.878z"/></g></svg>